<?xml version="1.0" encoding="utf-8"?>
<!-- Generator: Adobe Illustrator 16.0.4, SVG Export Plug-In . SVG Version: 6.00 Build 0)  -->
<!DOCTYPE svg PUBLIC "-//W3C//DTD SVG 1.1//EN" "http://www.w3.org/Graphics/SVG/1.1/DTD/svg11.dtd">
<svg version="1.1" id="Layer_1" xmlns="http://www.w3.org/2000/svg" xmlns:xlink="http://www.w3.org/1999/xlink" x="0px" y="0px"
	 width="75px" height="75px" viewBox="0 0 75 75" enable-background="new 0 0 75 75" xml:space="preserve">
<g>
	<path fill="#FF48B0" d="M37.5,7.161c-16.729,0-30.339,13.61-30.339,30.34c0,2.668,0.35,5.256,1,7.725v0.369h0.105
		C11.816,58.406,23.574,67.839,37.5,67.839c16.73,0,30.34-13.609,30.34-30.338C67.839,20.771,54.23,7.161,37.5,7.161z M37.5,65.839
		c-12.838,0-23.676-8.539-27.16-20.244h11.154c0.445,1.713,1.99,2.984,3.844,2.984c2.199,0,3.984-1.785,3.984-3.984
		c0-2.201-1.785-3.986-3.984-3.986c-1.854,0-3.398,1.271-3.844,2.986H9.824C9.394,41.63,9.16,39.593,9.16,37.501
		c0-15.652,12.687-28.34,28.339-28.34c15.65,0,28.34,12.688,28.34,28.34c0,2.092-0.232,4.129-0.664,6.094H53.541
		c-0.445-1.715-1.99-2.986-3.844-2.986c-2.199,0-3.984,1.785-3.984,3.986c0,2.199,1.785,3.984,3.984,3.984
		c1.854,0,3.398-1.271,3.844-2.984H64.66C61.175,57.3,50.337,65.839,37.5,65.839z M23.351,44.595c0-1.096,0.891-1.986,1.986-1.986
		c1.094,0,1.984,0.891,1.984,1.986c0,1.094-0.891,1.984-1.984,1.984C24.242,46.58,23.351,45.689,23.351,44.595z M51.683,44.595
		c0,1.094-0.891,1.984-1.986,1.984c-1.094,0-1.984-0.891-1.984-1.984c0-1.096,0.891-1.986,1.984-1.986
		C50.792,42.609,51.683,43.5,51.683,44.595z"/>
	<polygon fill="#FF48B0" points="55.949,36.5 38.498,36.5 38.498,31.16 45.591,31.16 45.591,29.16 38.498,29.16 36.498,29.16 
		29.406,29.16 29.406,31.16 36.498,31.16 36.498,36.5 19.701,36.5 19.701,38.5 36.498,38.5 38.498,38.5 55.949,38.5 	"/>
</g>
</svg>
