<?xml version="1.0" encoding="utf-8"?>
<!-- Generator: Adobe Illustrator 16.0.4, SVG Export Plug-In . SVG Version: 6.00 Build 0)  -->
<!DOCTYPE svg PUBLIC "-//W3C//DTD SVG 1.1//EN" "http://www.w3.org/Graphics/SVG/1.1/DTD/svg11.dtd">
<svg version="1.1" id="Layer_1" xmlns="http://www.w3.org/2000/svg" xmlns:xlink="http://www.w3.org/1999/xlink" x="0px" y="0px"
	 width="75px" height="75px" viewBox="0 0 75 75" enable-background="new 0 0 75 75" xml:space="preserve">
<g>
	<path fill="#A3CD39" d="M37.5,7.16C20.77,7.16,7.16,20.771,7.16,37.5s13.61,30.34,30.34,30.34c16.728,0,30.339-13.611,30.339-30.34
		S54.228,7.16,37.5,7.16z M37.5,65.839c-15.65,0-28.34-12.688-28.34-28.34C9.16,21.849,21.85,9.16,37.5,9.16
		c15.652,0,28.339,12.689,28.339,28.339C65.839,53.152,53.152,65.839,37.5,65.839z"/>
	<path fill="#A3CD39" d="M56.83,26.732H18.171h-2v2c0,6.441,2.882,12.211,7.411,16.125v8.484h2v-6.93
		c3.404,2.303,7.506,3.648,11.918,3.648c4.379,0,8.451-1.328,11.841-3.602v6.883h2v-8.414c4.574-3.914,7.488-9.717,7.488-16.195v-2
		H56.83z M37.5,48.06c-10.676,0-19.329-8.652-19.329-19.328H56.83C56.83,39.408,48.175,48.06,37.5,48.06z"/>
</g>
</svg>
