<?xml version="1.0" encoding="utf-8"?>
<!-- Generator: Adobe Illustrator 16.0.4, SVG Export Plug-In . SVG Version: 6.00 Build 0)  -->
<!DOCTYPE svg PUBLIC "-//W3C//DTD SVG 1.1//EN" "http://www.w3.org/Graphics/SVG/1.1/DTD/svg11.dtd">
<svg version="1.1" id="Layer_1" xmlns="http://www.w3.org/2000/svg" xmlns:xlink="http://www.w3.org/1999/xlink" x="0px" y="0px"
	 width="75px" height="75px" viewBox="0 0 75 75" enable-background="new 0 0 75 75" xml:space="preserve">
<path fill="#FF48B0" d="M37.5,7.16c-16.729,0-30.34,13.61-30.34,30.34s13.61,30.339,30.34,30.339S67.84,54.229,67.84,37.5
	S54.229,7.16,37.5,7.16z M37.5,9.16c14.995,0,27.265,11.651,28.266,26.394h-3.337c-2.087-7.66-4.14-14.717-8.757-14.717
	c-1.652,0-2.971,0.918-4.085,2.428c-1.114-1.51-2.433-2.428-4.083-2.428c-1.665,0-2.992,0.932-4.112,2.465
	c-1.12-1.533-2.446-2.465-4.11-2.465c-4.617,0-6.67,7.057-8.759,14.717H9.234C10.235,20.812,22.503,9.16,37.5,9.16z M20.823,37.554
	c1.05,3.855,2.099,7.539,3.469,10.248c-0.871,1.448-1.846,2.36-2.97,2.36c-3.009,0-4.96-6.443-6.648-12.608H20.823z M22.896,37.554
	h5.08c-0.768,2.8-1.591,5.652-2.542,7.938C24.484,43.206,23.663,40.354,22.896,37.554z M43.965,35.554h-5.146
	c0.777-2.836,1.609-5.734,2.573-8.05C42.354,29.818,43.188,32.717,43.965,35.554z M42.534,25.195
	c0.871-1.447,1.846-2.358,2.97-2.358c1.11,0,2.075,0.892,2.938,2.311c-1.153,2.258-2.079,5.203-2.967,8.367
	C44.595,30.373,43.676,27.448,42.534,25.195z M36.745,35.554h-6.149c1.698-6.199,3.657-12.717,6.686-12.717
	c1.123,0,2.098,0.911,2.968,2.358C38.864,27.93,37.808,31.659,36.745,35.554z M29.521,39.473c0.888,3.167,1.813,6.114,2.966,8.376
	c-0.864,1.42-1.829,2.313-2.941,2.313c-1.124,0-2.098-0.912-2.968-2.36C27.719,45.547,28.639,42.618,29.521,39.473z M31.064,37.554
	h5.135c-0.775,2.826-1.606,5.708-2.568,8.004C32.67,43.262,31.839,40.38,31.064,37.554z M38.272,37.554h6.095
	c-1.691,6.165-3.645,12.608-6.654,12.608c-1.111,0-2.075-0.893-2.938-2.312C36.158,45.137,37.215,41.432,38.272,37.554z
	 M49.587,27.436c0.976,2.325,1.815,5.254,2.601,8.118h-5.201C47.771,32.69,48.611,29.762,49.587,27.436z M54.261,35.554
	c-1.068-3.918-2.132-7.668-3.529-10.406c0.864-1.419,1.829-2.311,2.94-2.311c3.027,0,4.987,6.519,6.685,12.717H54.261z M37.5,65.839
	c-15.635,0-28.31-12.658-28.339-28.285h3.439c2.075,7.619,4.128,14.608,8.722,14.608c1.665,0,2.992-0.933,4.111-2.466
	c1.12,1.533,2.446,2.466,4.111,2.466c1.652,0,2.971-0.919,4.085-2.43c1.114,1.511,2.432,2.43,4.083,2.43
	c4.594,0,6.649-6.99,8.728-14.608h19.398C65.81,53.181,53.133,65.839,37.5,65.839z"/>
</svg>
