<?xml version="1.0" encoding="utf-8"?>
<!-- Generator: Adobe Illustrator 16.0.4, SVG Export Plug-In . SVG Version: 6.00 Build 0)  -->
<!DOCTYPE svg PUBLIC "-//W3C//DTD SVG 1.1//EN" "http://www.w3.org/Graphics/SVG/1.1/DTD/svg11.dtd">
<svg version="1.1" id="Layer_1" xmlns="http://www.w3.org/2000/svg" xmlns:xlink="http://www.w3.org/1999/xlink" x="0px" y="0px"
	 width="75px" height="75px" viewBox="0 0 75 75" enable-background="new 0 0 75 75" xml:space="preserve">
<path fill="#FF48B0" d="M37.5,7.16c-16.729,0-30.34,13.61-30.34,30.34s13.61,30.34,30.34,30.34s30.34-13.61,30.34-30.34
	S54.229,7.16,37.5,7.16z M37.5,9.16c15.316,0,27.787,12.152,28.314,27.34h-5.939h-1c-1.963,0-3.188-3.229-4.371-6.354
	c-1.426-3.759-2.899-7.646-6.244-7.646c-3.355,0-4.407,2.858-5.253,5.156c-0.877,2.383-1.51,3.844-3.372,3.844
	c-1.97,0-3.197-3.231-4.384-6.356C33.824,21.386,32.348,17.5,29,17.5c-3.346,0-5.243,4.927-7.252,10.144
	c-1.52,3.945-3.41,8.856-5.381,8.856h-1H9.186C9.713,21.312,22.184,9.16,37.5,9.16z M56.252,37.499
	c-1.632,1.395-2.641,4.05-3.626,6.646c-1.187,3.124-2.413,6.355-4.382,6.355c-1.867,0-2.501-1.462-3.38-3.846
	c-0.847-2.297-1.9-5.154-5.257-5.154c-3.345,0-4.819,3.886-6.245,7.645c-1.186,3.124-2.411,6.355-4.378,6.355
	c-1.968,0-3.857-4.912-5.375-8.859c-1.463-3.803-2.869-7.442-4.818-9.14c1.951-1.696,3.358-5.336,4.823-9.139
	C25.135,24.414,27.026,19.5,29,19.5c1.968,0,3.195,3.23,4.382,6.354c1.428,3.759,2.903,7.646,6.253,7.646
	c3.353,0,4.404-2.857,5.249-5.153c0.878-2.385,1.511-3.847,3.376-3.847c1.964,0,3.189,3.23,4.374,6.355
	C53.617,33.449,54.624,36.103,56.252,37.499z M37.5,65.84c-15.316,0-27.787-12.151-28.314-27.34h6.182h1
	c1.968,0,3.857,4.912,5.375,8.859c2.006,5.215,3.901,10.141,7.242,10.141c3.347,0,4.821-3.887,6.248-7.646
	c1.185-3.123,2.41-6.354,4.375-6.354c1.867,0,2.501,1.462,3.38,3.846c0.847,2.297,1.9,5.154,5.257,5.154
	c3.349,0,4.824-3.887,6.251-7.646c1.187-3.123,2.413-6.354,4.38-6.354h1h5.939C65.287,53.688,52.816,65.84,37.5,65.84z"/>
</svg>
