<?xml version="1.0" encoding="utf-8"?>
<!-- Generator: Adobe Illustrator 16.0.4, SVG Export Plug-In . SVG Version: 6.00 Build 0)  -->
<!DOCTYPE svg PUBLIC "-//W3C//DTD SVG 1.1//EN" "http://www.w3.org/Graphics/SVG/1.1/DTD/svg11.dtd">
<svg version="1.1" id="Layer_1" xmlns="http://www.w3.org/2000/svg" xmlns:xlink="http://www.w3.org/1999/xlink" x="0px" y="0px"
	 width="75px" height="75px" viewBox="0 0 75 75" enable-background="new 0 0 75 75" xml:space="preserve">
<g>
	<path fill="#A3CD39" d="M37.5,7.16C20.771,7.16,7.16,20.77,7.16,37.5c0,16.729,13.611,30.34,30.339,30.34
		c16.73,0,30.34-13.611,30.34-30.34C67.839,20.77,54.23,7.16,37.5,7.16z M37.5,65.84C21.849,65.84,9.16,53.153,9.16,37.5
		S21.849,9.16,37.5,9.16c15.652,0,28.34,12.688,28.34,28.34S53.152,65.84,37.5,65.84z"/>
	<circle fill="#A3CD39" cx="37.5" cy="37.5" r="1.672"/>
	<path fill="#A3CD39" d="M32.4,35.817c5.115,0,2.691-3.25,2.691-7.945c0-2.869,1.744-5.844,1.744-7.656
		c0-3.658-3.775-3.961-5.025-3.961c-0.248,0-0.396,0.012-0.396,0.012c-6.037,0-10.104,4.303-10.104,9.451
		C21.31,30.776,26.917,35.817,32.4,35.817z M31.414,18.266l0.08-0.002l0.07-0.004c0.023-0.002,0.113-0.006,0.246-0.006
		c2.008,0,3.025,0.66,3.025,1.961c0,0.479-0.33,1.473-0.621,2.35c-0.5,1.508-1.123,3.385-1.123,5.307
		c0,1.436,0.201,2.742,0.363,3.793c0.107,0.691,0.248,1.613,0.207,2.021c-0.164,0.051-0.531,0.131-1.262,0.131
		c-4.418,0-9.09-4.164-9.09-8.1C23.31,21.399,26.718,18.266,31.414,18.266z"/>
	<path fill="#A3CD39" d="M42.601,39.184c-5.115,0-2.691,3.248-2.691,7.943c0,2.871-1.746,5.846-1.746,7.656
		c0,3.66,3.779,3.963,5.027,3.963c0.248,0,0.396-0.012,0.396-0.012c6.037,0,10.104-4.303,10.104-9.451
		C53.691,44.223,48.085,39.184,42.601,39.184z M43.587,56.735h-0.08l-0.068,0.006c-0.025,0.002-0.113,0.006-0.248,0.006
		c-2.008,0-3.027-0.66-3.027-1.963c0-0.479,0.33-1.473,0.621-2.348c0.502-1.508,1.125-3.385,1.125-5.309
		c0-1.436-0.201-2.742-0.363-3.793c-0.105-0.691-0.248-1.611-0.207-2.02c0.164-0.053,0.531-0.131,1.262-0.131
		c4.418,0,9.09,4.162,9.09,8.1C51.691,53.6,48.283,56.735,43.587,56.735z"/>
	<path fill="#A3CD39" d="M33.49,39.334c-1.391,0-3.332,0.574-5.617,0.574c-2.867,0-5.842-1.744-7.654-1.744h-0.002
		c-4.385,0-3.95,5.422-3.95,5.422c0.001,6.039,4.303,10.104,9.452,10.104c5.059,0,10.098-5.605,10.098-11.09
		C35.816,39.973,34.96,39.334,33.49,39.334z M25.718,51.69c-4.316,0-7.451-3.408-7.452-8.104l-0.001-0.08l-0.005-0.07
		c-0.034-0.498,0.024-2.09,0.721-2.836c0.175-0.188,0.493-0.436,1.235-0.436h0.002c0.478,0,1.472,0.33,2.351,0.621
		c1.506,0.5,3.381,1.123,5.303,1.123c1.436,0,2.742-0.201,3.793-0.363c0.734-0.113,1.367-0.211,1.824-0.211
		c0.084,0,0.148,0.004,0.197,0.008c0.051,0.166,0.129,0.533,0.129,1.258C33.816,47.018,29.654,51.69,25.718,51.69z"/>
	<path fill="#A3CD39" d="M58.734,31.415c0-6.039-4.303-10.105-9.451-10.105c-5.061,0-10.098,5.607-10.098,11.092
		c0,2.625,0.857,3.264,2.326,3.264c1.391,0,3.334-0.572,5.617-0.572c2.869,0,5.844,1.744,7.654,1.744
		C59.169,36.836,58.734,31.415,58.734,31.415z M56.019,34.401c-0.174,0.188-0.492,0.436-1.236,0.436
		c-0.479,0-1.471-0.33-2.348-0.621c-1.508-0.5-3.385-1.123-5.307-1.123c-1.436,0-2.742,0.201-3.791,0.363
		c-0.734,0.111-1.369,0.209-1.826,0.209c-0.084,0-0.148-0.002-0.195-0.008c-0.053-0.164-0.131-0.533-0.131-1.256
		c0-4.418,4.162-9.092,8.098-9.092c4.318,0,7.451,3.408,7.451,8.105l0.002,0.08l0.004,0.068
		C56.775,32.063,56.716,33.655,56.019,34.401z"/>
</g>
</svg>
