<?xml version="1.0" encoding="utf-8"?>
<!-- Generator: Adobe Illustrator 16.0.4, SVG Export Plug-In . SVG Version: 6.00 Build 0)  -->
<!DOCTYPE svg PUBLIC "-//W3C//DTD SVG 1.1//EN" "http://www.w3.org/Graphics/SVG/1.1/DTD/svg11.dtd">
<svg version="1.1" id="Layer_1" xmlns="http://www.w3.org/2000/svg" xmlns:xlink="http://www.w3.org/1999/xlink" x="0px" y="0px"
	 width="75px" height="75px" viewBox="0 0 75 75" enable-background="new 0 0 75 75" xml:space="preserve">
<path fill="#FF48B0" d="M37.5,7.161c-16.729,0-30.34,13.61-30.34,30.34c0,16.729,13.61,30.339,30.34,30.339
	s30.34-13.61,30.34-30.339C67.84,20.771,54.229,7.161,37.5,7.161z M37.5,9.161c15.376,0,27.882,12.246,28.319,27.516H54.758
	c-1.057,0-1.657-2.283-2.188-4.298c-0.361-1.375-0.749-2.842-1.381-3.955c0.077-0.255,0.131-0.519,0.131-0.799
	c0-1.537-1.246-2.783-2.781-2.783c-1.537,0-2.783,1.246-2.783,2.783c0,0.438,0.11,0.847,0.291,1.216
	c-0.898,2.147-1.495,5.777-2.237,10.687c-0.432,2.86-1.072,7.089-1.785,9.469c-0.233-0.063-0.475-0.108-0.728-0.108
	c-0.31,0-0.603,0.062-0.881,0.156c-0.784-2.677-1.447-7.789-1.929-11.498c-0.765-5.908-1.356-10.105-2.266-12.522
	c0.253-0.42,0.407-0.905,0.407-1.432c0-1.537-1.246-2.783-2.781-2.783c-1.537,0-2.783,1.246-2.783,2.783
	c0,0.481,0.133,0.927,0.349,1.322c-0.881,2.157-1.474,5.761-2.207,10.616c-0.427,2.824-1.057,6.982-1.758,9.378
	c-0.38-0.194-0.804-0.313-1.259-0.313c-0.404,0-0.786,0.091-1.133,0.246c-0.259-0.729-0.483-1.57-0.695-2.376
	c-0.713-2.713-1.521-5.788-4.117-5.788H9.181C9.618,21.407,22.126,9.161,37.5,9.161z M37.5,65.84
	c-15.256,0-27.693-12.058-28.311-27.163h11.055c1.054,0,1.654,2.282,2.184,4.297c0.314,1.195,0.646,2.46,1.143,3.502
	c-0.098,0.284-0.162,0.584-0.162,0.901c0,1.537,1.244,2.783,2.781,2.783s2.783-1.246,2.783-2.783c0-0.239-0.04-0.468-0.097-0.69
	c0.938-2.122,1.547-5.817,2.308-10.858c0.439-2.91,1.096-7.241,1.823-9.597c0.267,0.085,0.546,0.144,0.841,0.144
	c0.25,0,0.486-0.044,0.717-0.105c0.789,2.664,1.457,7.807,1.939,11.533c0.777,5.999,1.375,10.237,2.308,12.638
	c-0.185,0.372-0.298,0.785-0.298,1.229c0,1.537,1.246,2.783,2.783,2.783c1.535,0,2.781-1.246,2.781-2.783
	c0-0.528-0.155-1.017-0.41-1.437c0.834-2.178,1.41-5.711,2.12-10.407c0.438-2.909,1.094-7.233,1.821-9.589
	c0.293,0.104,0.602,0.171,0.93,0.171c0.45,0,0.869-0.117,1.246-0.308c0.327,0.807,0.598,1.824,0.852,2.787
	c0.704,2.676,1.504,5.697,4.018,5.781v0.008h11.156C65.193,53.782,52.758,65.84,37.5,65.84z"/>
</svg>
