<?xml version="1.0" encoding="utf-8"?>
<!-- Generator: Adobe Illustrator 16.0.4, SVG Export Plug-In . SVG Version: 6.00 Build 0)  -->
<!DOCTYPE svg PUBLIC "-//W3C//DTD SVG 1.1//EN" "http://www.w3.org/Graphics/SVG/1.1/DTD/svg11.dtd">
<svg version="1.1" id="Layer_1" xmlns="http://www.w3.org/2000/svg" xmlns:xlink="http://www.w3.org/1999/xlink" x="0px" y="0px"
	 width="75px" height="75px" viewBox="0 0 75 75" enable-background="new 0 0 75 75" xml:space="preserve">
<path fill="#FF7231" d="M37.5,7.161c-16.73,0-30.34,13.611-30.34,30.34c0,16.73,13.609,30.34,30.34,30.34
	c16.729,0,30.34-13.609,30.34-30.34C67.839,20.772,54.228,7.161,37.5,7.161z M24.33,38.5h5.617l3.967,7.031h16.754v5.139H24.33V38.5
	z M32.173,36.5l2.908-5.156h15.586V36.5H32.173z M50.667,38.5v5.031H35.082L32.244,38.5H50.667z M50.667,29.344H33.914L29.876,36.5
	H24.33v-12.17h26.338V29.344z M52.667,38.5h13.146c-0.061,1.721-0.271,3.402-0.625,5.031H52.667V38.5z M52.667,36.5v-5.156H65.16
	c0.371,1.669,0.592,3.393,0.654,5.156H52.667z M37.5,9.161c12.816,0,23.639,8.51,27.143,20.184H52.667v-7.014H22.33V36.5H9.185
	C9.712,21.313,22.181,9.161,37.5,9.161z M37.5,65.84c-15.318,0-27.787-12.15-28.314-27.34H22.33v14.17h30.338v-7.139h12.01
	C61.214,57.272,50.361,65.84,37.5,65.84z"/>
</svg>
