<?xml version="1.0" encoding="utf-8"?>
<!-- Generator: Adobe Illustrator 16.0.4, SVG Export Plug-In . SVG Version: 6.00 Build 0)  -->
<!DOCTYPE svg PUBLIC "-//W3C//DTD SVG 1.1//EN" "http://www.w3.org/Graphics/SVG/1.1/DTD/svg11.dtd">
<svg version="1.1" id="Layer_1" xmlns="http://www.w3.org/2000/svg" xmlns:xlink="http://www.w3.org/1999/xlink" x="0px" y="0px"
	 width="75px" height="75px" viewBox="0 0 75 75" enable-background="new 0 0 75 75" xml:space="preserve">
<path fill="#FF7231" d="M37.5,7.161c-16.73,0-30.34,13.611-30.34,30.339c0,16.73,13.61,30.34,30.34,30.34
	c16.729,0,30.34-13.609,30.34-30.34C67.839,20.772,54.228,7.161,37.5,7.161z M37.5,9.161c15.316,0,27.787,12.152,28.314,27.339
	H52.548c-0.459-2.021-2.262-3.537-4.418-3.537c-2.289,0-4.168,1.709-4.477,3.913L23.33,23.331V36.5H9.185
	C9.712,21.313,22.181,9.161,37.5,9.161z M50.667,37.5c0,1.4-1.139,2.539-2.537,2.539c-1.4,0-2.539-1.139-2.539-2.539
	c0-1.398,1.139-2.537,2.539-2.537C49.529,34.963,50.667,36.102,50.667,37.5z M40.984,37.5L25.33,47.934V27.067L40.984,37.5z
	 M37.5,65.84c-15.318,0-27.788-12.15-28.315-27.34H23.33v13.17l20.324-13.545c0.309,2.205,2.188,3.914,4.477,3.914
	c2.156,0,3.959-1.517,4.418-3.539h13.266C65.287,53.69,52.816,65.84,37.5,65.84z"/>
</svg>
