<?xml version="1.0" encoding="utf-8"?>
<!-- Generator: Adobe Illustrator 16.0.4, SVG Export Plug-In . SVG Version: 6.00 Build 0)  -->
<!DOCTYPE svg PUBLIC "-//W3C//DTD SVG 1.1//EN" "http://www.w3.org/Graphics/SVG/1.1/DTD/svg11.dtd">
<svg version="1.1" id="Layer_1" xmlns="http://www.w3.org/2000/svg" xmlns:xlink="http://www.w3.org/1999/xlink" x="0px" y="0px"
	 width="75px" height="75px" viewBox="0 0 75 75" enable-background="new 0 0 75 75" xml:space="preserve">
<path fill="#FF48B0" d="M37.5,7.16c-16.729,0-30.34,13.61-30.34,30.34s13.61,30.34,30.34,30.34s30.34-13.61,30.34-30.34
	S54.229,7.16,37.5,7.16z M65.84,37.5c0,6.617-2.274,12.7-6.076,17.523V19.977C63.565,24.799,65.84,30.882,65.84,37.5z
	 M15.236,19.976v35.048C11.435,50.201,9.16,44.117,9.16,37.5C9.16,30.882,11.435,24.799,15.236,19.976z M17.236,57.305V17.695
	c2.708-2.77,5.978-4.984,9.627-6.464v33.362h2.543V64.66C24.729,63.269,20.56,60.703,17.236,57.305z M31.406,65.176V44.594h2.541
	V9.39C35.112,9.244,36.296,9.16,37.5,9.16c1.198,0,2.376,0.083,3.535,0.228v35.206h2.557v20.582c-1.963,0.431-4,0.664-6.092,0.664
	C35.407,65.84,33.37,65.606,31.406,65.176z M45.592,64.661V44.594h2.529V11.226c3.655,1.479,6.931,3.696,9.643,6.471v39.606
	C54.44,60.703,50.27,63.27,45.592,64.661z"/>
</svg>
