<?xml version="1.0" encoding="utf-8"?>
<!-- Generator: Adobe Illustrator 16.0.4, SVG Export Plug-In . SVG Version: 6.00 Build 0)  -->
<!DOCTYPE svg PUBLIC "-//W3C//DTD SVG 1.1//EN" "http://www.w3.org/Graphics/SVG/1.1/DTD/svg11.dtd">
<svg version="1.1" id="Layer_1" xmlns="http://www.w3.org/2000/svg" xmlns:xlink="http://www.w3.org/1999/xlink" x="0px" y="0px"
	 width="75px" height="75px" viewBox="0 0 75 75" enable-background="new 0 0 75 75" xml:space="preserve">
<path fill="#FF7231" d="M37.5,7.16C20.77,7.16,7.16,20.771,7.16,37.5c0,16.73,13.61,30.34,30.34,30.34
	c16.728,0,30.339-13.609,30.339-30.34C67.839,20.771,54.228,7.16,37.5,7.16z M52.269,43.718c-0.459-2.021-2.262-3.537-4.418-3.537
	c-0.953,0-1.835,0.297-2.566,0.801v-9.451h19.917c0.414,1.926,0.637,3.921,0.637,5.969c0,2.139-0.244,4.217-0.693,6.219H52.269z
	 M50.388,44.718c0,1.4-1.139,2.539-2.537,2.539c-1.4,0-2.539-1.139-2.539-2.539c0-1.398,1.139-2.537,2.539-2.537
	C49.25,42.181,50.388,43.32,50.388,44.718z M37.5,9.16c12.882,0,23.751,8.601,27.195,20.371h-19.41v-7.076H22.023V36.5H9.185
	C9.712,21.312,22.182,9.16,37.5,9.16z M43.285,24.455v26.34H24.023v-26.34H43.285z M37.5,65.839
	c-15.318,0-27.788-12.15-28.315-27.34h12.838v14.295h23.262v-4.338c0.73,0.502,1.613,0.801,2.566,0.801
	c2.156,0,3.959-1.518,4.418-3.539h12.355C61.101,57.362,50.292,65.839,37.5,65.839z"/>
</svg>
