<?xml version="1.0" encoding="utf-8"?>
<!-- Generator: Adobe Illustrator 16.0.4, SVG Export Plug-In . SVG Version: 6.00 Build 0)  -->
<!DOCTYPE svg PUBLIC "-//W3C//DTD SVG 1.1//EN" "http://www.w3.org/Graphics/SVG/1.1/DTD/svg11.dtd">
<svg version="1.1" id="Layer_1" xmlns="http://www.w3.org/2000/svg" xmlns:xlink="http://www.w3.org/1999/xlink" x="0px" y="0px"
	 width="75px" height="75px" viewBox="0 0 75 75" enable-background="new 0 0 75 75" xml:space="preserve">
<g>
	<path fill="#FF48B0" d="M37.5,7.161C20.771,7.161,7.16,20.772,7.16,37.5S20.771,67.84,37.5,67.84c16.73,0,30.34-13.611,30.34-30.34
		S54.23,7.161,37.5,7.161z M37.5,65.84C21.849,65.84,9.16,53.153,9.16,37.5C9.16,21.85,21.849,9.161,37.5,9.161
		c15.652,0,28.34,12.689,28.34,28.339C65.839,53.153,53.152,65.84,37.5,65.84z"/>
	<path fill="#FF48B0" d="M46.556,36.778c-0.135-1.719-0.752-3.301-1.713-4.619l8.904-8.906l-1.414-1.414l-8.84,8.842
		c-1.293-1.137-2.904-1.908-4.686-2.166V16.237h-2v12.207c-1.869,0.141-3.582,0.848-4.967,1.953l-8.559-8.559l-1.414,1.414
		l8.555,8.553c-1.115,1.385-1.83,3.1-1.979,4.973H16.268v2h12.242c0.254,1.793,1.027,3.416,2.17,4.715l-8.811,8.811l1.414,1.414
		l8.875-8.875c1.326,0.969,2.92,1.586,4.65,1.717v12.762h2V46.489c1.645-0.238,3.15-0.912,4.387-1.91l9.139,9.139l1.414-1.414
		l-9.143-9.143c0.99-1.24,1.656-2.74,1.889-4.383h12.857v-2H46.556z M37.5,44.594c-3.916,0-7.092-3.176-7.092-7.094
		c0-3.916,3.176-7.092,7.092-7.092c3.918,0,7.094,3.176,7.094,7.092C44.593,41.418,41.417,44.594,37.5,44.594z"/>
</g>
</svg>
