<?xml version="1.0" encoding="utf-8"?>
<!-- Generator: Adobe Illustrator 16.0.4, SVG Export Plug-In . SVG Version: 6.00 Build 0)  -->
<!DOCTYPE svg PUBLIC "-//W3C//DTD SVG 1.1//EN" "http://www.w3.org/Graphics/SVG/1.1/DTD/svg11.dtd">
<svg version="1.1" id="Layer_1" xmlns="http://www.w3.org/2000/svg" xmlns:xlink="http://www.w3.org/1999/xlink" x="0px" y="0px"
	 width="75px" height="75px" viewBox="0 0 75 75" enable-background="new 0 0 75 75" xml:space="preserve">
<path fill="#A3CD39" d="M44.801,7.999L44.324,9.94c12.707,3.123,21.582,14.457,21.582,27.56c0,15.311-12.191,27.83-27.376,28.357
	V45.641h7.652l-7.713-15.41v-0.256h5.061v-2h-5.061V7.124h-1c-16.75,0-30.375,13.626-30.375,30.375
	c0,13.992,9.472,26.117,23.034,29.484l0.482-1.941C17.941,61.897,9.093,50.571,9.093,37.499c0-15.311,12.19-27.83,27.375-28.357
	v18.833h-4.939v2h4.939v0.264l-7.713,15.402h7.773v22.234h1c16.75,0,30.376-13.627,30.376-30.375
	C67.906,23.473,58.404,11.342,44.801,7.999z M37.471,32.704l5.473,10.938H31.994L37.471,32.704z"/>
</svg>
