<?xml version="1.0" encoding="utf-8"?>
<!-- Generator: Adobe Illustrator 16.0.4, SVG Export Plug-In . SVG Version: 6.00 Build 0)  -->
<!DOCTYPE svg PUBLIC "-//W3C//DTD SVG 1.1//EN" "http://www.w3.org/Graphics/SVG/1.1/DTD/svg11.dtd">
<svg version="1.1" id="Layer_1" xmlns="http://www.w3.org/2000/svg" xmlns:xlink="http://www.w3.org/1999/xlink" x="0px" y="0px"
	 width="75px" height="75px" viewBox="0 0 75 75" enable-background="new 0 0 75 75" xml:space="preserve">
<path fill="#FF48B0" d="M37.5,7.16C20.771,7.16,7.16,20.77,7.16,37.5c0,16.729,13.611,30.34,30.339,30.34
	c16.73,0,30.34-13.611,30.34-30.34C67.839,20.77,54.23,7.16,37.5,7.16z M56.816,16.77L37.5,36.086L18.185,16.77
	c5.061-4.719,11.848-7.61,19.315-7.61S51.753,12.051,56.816,16.77z M17.474,17.448l-0.025,0.025
	C17.457,17.465,17.465,17.458,17.474,17.448z M9.16,37.5c0-7.467,2.892-14.254,7.61-19.316L36.085,37.5L16.771,56.815
	C12.052,51.754,9.16,44.967,9.16,37.5z M17.44,57.518l0.041,0.041C17.468,57.545,17.454,57.532,17.44,57.518z M18.185,58.229
	L37.5,38.915l19.316,19.314c-5.062,4.719-11.85,7.611-19.316,7.611S23.246,62.948,18.185,58.229z M57.533,57.545l0.012-0.012
	C57.541,57.538,57.537,57.542,57.533,57.545z M58.23,56.815L38.914,37.5L58.23,18.184c4.719,5.062,7.609,11.85,7.609,19.316
	S62.949,51.754,58.23,56.815z"/>
</svg>
