<?xml version="1.0" encoding="utf-8"?>
<!-- Generator: Adobe Illustrator 16.0.4, SVG Export Plug-In . SVG Version: 6.00 Build 0)  -->
<!DOCTYPE svg PUBLIC "-//W3C//DTD SVG 1.1//EN" "http://www.w3.org/Graphics/SVG/1.1/DTD/svg11.dtd">
<svg version="1.1" id="Layer_1" xmlns="http://www.w3.org/2000/svg" xmlns:xlink="http://www.w3.org/1999/xlink" x="0px" y="0px"
	 width="75px" height="75px" viewBox="0 0 75 75" enable-background="new 0 0 75 75" xml:space="preserve">
<g>
	<path fill="#A3CD39" d="M37.5,7.16C20.77,7.16,7.16,20.77,7.16,37.5c0,16.729,13.61,30.34,30.34,30.34
		c16.728,0,30.339-13.611,30.339-30.34C67.839,20.77,54.228,7.16,37.5,7.16z M37.5,65.84c-15.65,0-28.34-12.688-28.34-28.34
		S21.85,9.16,37.5,9.16c15.652,0,28.339,12.688,28.339,28.34S53.152,65.84,37.5,65.84z"/>
	<polygon fill="#A3CD39" points="38.004,44.129 37.977,44.129 31.658,28.704 28.762,28.704 28.762,47.342 30.658,47.342 
		30.658,31.151 30.711,31.151 37.451,47.342 38.451,47.342 45.189,31.151 45.242,31.151 45.242,47.342 47.137,47.342 47.137,28.704 
		44.24,28.704 	"/>
</g>
</svg>
