<?xml version="1.0" encoding="utf-8"?>
<!-- Generator: Adobe Illustrator 16.0.4, SVG Export Plug-In . SVG Version: 6.00 Build 0)  -->
<!DOCTYPE svg PUBLIC "-//W3C//DTD SVG 1.1//EN" "http://www.w3.org/Graphics/SVG/1.1/DTD/svg11.dtd">
<svg version="1.1" id="Layer_1" xmlns="http://www.w3.org/2000/svg" xmlns:xlink="http://www.w3.org/1999/xlink" x="0px" y="0px"
	 width="75px" height="75px" viewBox="0 0 75 75" enable-background="new 0 0 75 75" xml:space="preserve">
<g>
	<path fill="#A3CD39" d="M37.5,7.161C20.77,7.161,7.16,20.772,7.16,37.5S20.77,67.84,37.5,67.84
		c16.728,0,30.339-13.611,30.339-30.34S54.228,7.161,37.5,7.161z M37.5,65.84c-15.65,0-28.34-12.689-28.34-28.34
		c0-15.652,12.69-28.339,28.34-28.339c15.652,0,28.339,12.687,28.339,28.339C65.839,53.151,53.152,65.84,37.5,65.84z"/>
	<polygon fill="#A3CD39" points="31.945,25.344 33.783,23.645 31.945,21.946 23.258,21.946 21.422,23.645 23.258,25.344 	"/>
	<polygon fill="#A3CD39" points="21.422,37.84 23.258,39.54 31.945,39.54 33.783,37.84 31.945,36.141 23.258,36.141 	"/>
	<polygon fill="#A3CD39" points="22.227,35.114 22.227,26.426 20.527,24.588 18.828,26.426 18.828,35.114 20.527,36.95 	"/>
	<polygon fill="#A3CD39" points="32.996,26.426 32.996,35.114 34.695,36.95 36.395,35.114 36.395,26.426 34.695,24.588 	"/>
	<polygon fill="#A3CD39" points="23.258,50.295 21.422,51.995 23.258,53.694 31.945,53.694 33.783,51.995 31.945,50.295 	"/>
	<polygon fill="#A3CD39" points="22.227,40.581 20.527,38.743 18.828,40.581 18.828,49.268 20.527,51.104 22.227,49.268 	"/>
	<polygon fill="#A3CD39" points="32.996,40.581 32.996,49.268 34.695,51.104 36.395,49.268 36.395,40.581 34.695,38.743 	"/>
	<polygon fill="#A3CD39" points="51.724,25.344 53.562,23.645 51.724,21.946 43.037,21.946 41.201,23.645 43.037,25.344 	"/>
	<polygon fill="#A3CD39" points="41.201,37.84 43.037,39.54 51.724,39.54 53.562,37.84 51.724,36.141 43.037,36.141 	"/>
	<polygon fill="#A3CD39" points="42.006,35.114 42.006,26.426 40.307,24.588 38.607,26.426 38.607,35.114 40.307,36.95 	"/>
	<polygon fill="#A3CD39" points="52.775,26.426 52.775,35.114 54.474,36.95 56.173,35.114 56.173,26.426 54.474,24.588 	"/>
	<polygon fill="#A3CD39" points="43.037,50.295 41.201,51.995 43.037,53.694 51.724,53.694 53.562,51.995 51.724,50.295 	"/>
	<polygon fill="#A3CD39" points="42.006,40.581 40.307,38.743 38.607,40.581 38.607,49.268 40.307,51.104 42.006,49.268 	"/>
	<polygon fill="#A3CD39" points="52.775,40.581 52.775,49.268 54.474,51.104 56.173,49.268 56.173,40.581 54.474,38.743 	"/>
</g>
</svg>
