<?xml version="1.0" encoding="utf-8"?>
<!-- Generator: Adobe Illustrator 16.0.4, SVG Export Plug-In . SVG Version: 6.00 Build 0)  -->
<!DOCTYPE svg PUBLIC "-//W3C//DTD SVG 1.1//EN" "http://www.w3.org/Graphics/SVG/1.1/DTD/svg11.dtd">
<svg version="1.1" id="Layer_1" xmlns="http://www.w3.org/2000/svg" xmlns:xlink="http://www.w3.org/1999/xlink" x="0px" y="0px"
	 width="75px" height="75px" viewBox="0 0 75 75" enable-background="new 0 0 75 75" xml:space="preserve">
<g>
	<g>
		<path fill="#FF48B0" d="M37.5,9.16c15.652,0,28.34,12.688,28.34,28.34c0,15.653-12.688,28.34-28.34,28.34
			c-15.65,0-28.34-12.688-28.34-28.34C9.16,21.848,21.85,9.16,37.5,9.16 M37.5,7.16C20.771,7.16,7.16,20.77,7.16,37.5
			c0,16.729,13.61,30.34,30.34,30.34S67.84,54.229,67.84,37.5C67.84,20.77,54.229,7.16,37.5,7.16L37.5,7.16z"/>
	</g>
	<g>
		<path fill="#FF48B0" d="M44.701,42.5c-4.043,0-6.113-2.301-7.938-4.332c-1.771-1.968-3.3-3.668-6.452-3.668
			s-4.682,1.7-6.452,3.668c-1.825,2.031-3.896,4.332-7.938,4.332v-2c3.152,0,4.682-1.701,6.452-3.669
			c1.825-2.03,3.896-4.331,7.938-4.331s6.113,2.301,7.938,4.331c1.771,1.968,3.3,3.669,6.452,3.669c3.148,0,4.677-1.701,6.445-3.668
			c1.825-2.03,3.894-4.332,7.936-4.332v2c-3.15,0-4.679,1.7-6.448,3.668C50.81,40.199,48.741,42.5,44.701,42.5z"/>
	</g>
</g>
</svg>
