<?xml version="1.0" encoding="utf-8"?>
<!-- Generator: Adobe Illustrator 16.0.4, SVG Export Plug-In . SVG Version: 6.00 Build 0)  -->
<!DOCTYPE svg PUBLIC "-//W3C//DTD SVG 1.1//EN" "http://www.w3.org/Graphics/SVG/1.1/DTD/svg11.dtd">
<svg version="1.1" id="Layer_1" xmlns="http://www.w3.org/2000/svg" xmlns:xlink="http://www.w3.org/1999/xlink" x="0px" y="0px"
	 width="75px" height="75px" viewBox="0 0 75 75" enable-background="new 0 0 75 75" xml:space="preserve">
<g>
	<path fill="#39499B" d="M40.714,9.336V4.51h-2v11.289h2v-4.452c13.612,1.603,24.125,13.32,24.125,27.147
		c0,15.075-12.265,27.34-27.34,27.34s-27.34-12.265-27.34-27.34c0-13.83,10.514-25.547,24.127-27.147v2.031h2V6.931h-2v2.405
		C19.563,10.948,8.16,23.574,8.16,38.494c0,16.179,13.162,29.34,29.34,29.34s29.34-13.161,29.34-29.34
		C66.839,23.576,55.437,10.95,40.714,9.336z"/>
	<path fill="#39499B" d="M23.332,38.494L37.5,45.587v14.17l14.17-21.264L37.5,31.4V17.23L23.332,38.494z M48.75,39.268L39.5,53.149
		v-7.562v-1.235l-1.104-0.553l-12.144-6.08L35.5,23.838V31.4v1.235l1.104,0.553L48.75,39.268z"/>
	<polygon fill="#39499B" points="58.189,13.923 59.337,13.923 59.337,10.814 62.449,10.814 62.449,9.666 59.337,9.666 59.337,6.555 
		58.189,6.555 58.189,9.666 55.08,9.666 55.08,10.814 58.189,10.814 	"/>
	<rect x="13.113" y="9.594" fill="#39499B" width="6.25" height="1.12"/>
</g>
</svg>
