<?xml version="1.0" encoding="utf-8"?>
<!-- Generator: Adobe Illustrator 16.0.4, SVG Export Plug-In . SVG Version: 6.00 Build 0)  -->
<!DOCTYPE svg PUBLIC "-//W3C//DTD SVG 1.1//EN" "http://www.w3.org/Graphics/SVG/1.1/DTD/svg11.dtd">
<svg version="1.1" id="Layer_1" xmlns="http://www.w3.org/2000/svg" xmlns:xlink="http://www.w3.org/1999/xlink" x="0px" y="0px"
	 width="75px" height="75px" viewBox="0 0 75 75" enable-background="new 0 0 75 75" xml:space="preserve">
<path fill="#FF48B0" d="M37.5,7.161c-16.729,0-30.339,13.61-30.339,30.34c0,16.729,13.611,30.338,30.339,30.338
	c16.73,0,30.34-13.609,30.34-30.338C67.839,20.771,54.23,7.161,37.5,7.161z M9.191,38.722H31.63l-2.393,2.391h2.879l3.391-3.391
	l-3.391-3.391h-2.879l2.393,2.391H9.18C9.584,21.765,21.57,9.705,36.5,9.187v56.627C21.718,65.3,9.817,53.474,9.191,38.722z
	 M38.5,65.814V9.187c14.93,0.519,26.916,12.579,27.32,27.536H43.441l2.393-2.391h-2.879l-3.391,3.391l3.391,3.391h2.879
	l-2.393-2.391h22.367C65.183,53.474,53.283,65.3,38.5,65.814z"/>
</svg>
