<?xml version="1.0" encoding="utf-8"?>
<!-- Generator: Adobe Illustrator 16.0.4, SVG Export Plug-In . SVG Version: 6.00 Build 0)  -->
<!DOCTYPE svg PUBLIC "-//W3C//DTD SVG 1.1//EN" "http://www.w3.org/Graphics/SVG/1.1/DTD/svg11.dtd">
<svg version="1.1" id="Layer_1" xmlns="http://www.w3.org/2000/svg" xmlns:xlink="http://www.w3.org/1999/xlink" x="0px" y="0px"
	 width="75px" height="75px" viewBox="0 0 75 75" enable-background="new 0 0 75 75" xml:space="preserve">
<g>
	<path fill="#FF48B0" d="M37.499,7.161c-16.729,0-30.338,13.61-30.338,30.34c0,16.729,13.61,30.338,30.338,30.338
		c16.729,0,30.34-13.609,30.34-30.338C67.839,20.771,54.228,7.161,37.499,7.161z M37.499,65.839
		c-15.65,0-28.338-12.688-28.338-28.338c0-15.652,12.688-28.34,28.338-28.34c15.653,0,28.34,12.688,28.34,28.34
		C65.839,53.152,53.152,65.839,37.499,65.839z"/>
	<path fill="#FF48B0" d="M45.565,43.625V30.437c0-0.553-0.447-1-1-1H30.38c-0.553,0-1,0.447-1,1v13.188h-14.17v2h15.17
		c0.553,0,1-0.447,1-1V31.437h12.186v13.188c0,0.553,0.447,1,1,1h15.172v-2H45.565z"/>
</g>
</svg>
