<?xml version="1.0" encoding="utf-8"?>
<!-- Generator: Adobe Illustrator 16.0.4, SVG Export Plug-In . SVG Version: 6.00 Build 0)  -->
<!DOCTYPE svg PUBLIC "-//W3C//DTD SVG 1.1//EN" "http://www.w3.org/Graphics/SVG/1.1/DTD/svg11.dtd">
<svg version="1.1" id="Layer_1" xmlns="http://www.w3.org/2000/svg" xmlns:xlink="http://www.w3.org/1999/xlink" x="0px" y="0px"
	 width="75px" height="75px" viewBox="0 0 75 75" enable-background="new 0 0 75 75" xml:space="preserve">
<g>
	<path fill="#FF48B0" d="M37.5,7.161c-16.729,0-30.34,13.61-30.34,30.34c0,16.73,13.61,30.339,30.34,30.339S67.84,54.23,67.84,37.5
		C67.84,20.771,54.229,7.161,37.5,7.161z M37.5,65.84c-12.845,0-23.688-8.547-27.166-20.264H30.82l14.187-14.169h9.88l-2.393,2.391
		h2.879l3.391-3.391l-3.391-3.391h-2.879l2.393,2.391H44.179L29.992,43.576H9.82c-0.428-1.957-0.66-3.988-0.66-6.076
		c0-2.093,0.233-4.13,0.664-6.094h20.168l4.991,4.985l1.414-1.416l-5.577-5.569H10.34C13.823,17.7,24.662,9.161,37.5,9.161
		c15.651,0,28.34,12.688,28.34,28.34C65.84,53.152,53.151,65.84,37.5,65.84z"/>
	<polygon fill="#FF48B0" points="52.494,41.186 54.887,43.576 45.007,43.576 39.962,38.537 38.548,39.953 44.179,45.576 
		54.887,45.576 52.494,47.967 55.373,47.967 58.764,44.576 55.373,41.186 	"/>
</g>
</svg>
