<?xml version="1.0" encoding="utf-8"?>
<!-- Generator: Adobe Illustrator 16.0.4, SVG Export Plug-In . SVG Version: 6.00 Build 0)  -->
<!DOCTYPE svg PUBLIC "-//W3C//DTD SVG 1.1//EN" "http://www.w3.org/Graphics/SVG/1.1/DTD/svg11.dtd">
<svg version="1.1" id="Layer_1" xmlns="http://www.w3.org/2000/svg" xmlns:xlink="http://www.w3.org/1999/xlink" x="0px" y="0px"
	 width="75px" height="75px" viewBox="0 0 75 75" enable-background="new 0 0 75 75" xml:space="preserve">
<g>
	<path fill="#A3CD39" d="M23.611,36.977h-0.703v1.273h0.627c0.426,0,0.957-0.109,0.957-0.664
		C24.492,37.077,24.006,36.977,23.611,36.977z"/>
	<path fill="#A3CD39" d="M37.5,7.161c-16.73,0-30.34,13.611-30.34,30.341c0,16.729,13.61,30.338,30.34,30.338
		c16.728,0,30.339-13.609,30.339-30.338C67.839,20.772,54.228,7.161,37.5,7.161z M24.332,28.465V12.407
		c3.656-1.922,7.785-3.068,12.168-3.22v19.279h-4.279v2h4.721l-6.557,13.1l-6.557-13.1h4.764v-2H24.332z M22.332,61.434
		C14.417,56.409,9.16,47.571,9.16,37.502c0-10.07,5.257-18.908,13.172-23.936v14.898H18.07v2h4.764l-6.596,13.178h6.094V61.434z
		 M22.916,39.208v2.168h-1.295v-5.465h2.082c1.051,0,2.094,0.4,2.094,1.652c0,0.732-0.432,1.258-1.135,1.475l1.428,2.338h-1.543
		l-1.184-2.168H22.916z M36.5,65.815c-4.383-0.152-8.512-1.297-12.168-3.221V43.643h6.014h0.078H36.5V65.815z M34.723,38.67
		c0-1.754,1.297-2.871,2.965-2.871c0.855,0,1.652,0.285,2.107,0.725l-0.834,0.949c-0.254-0.293-0.693-0.51-1.227-0.51
		c-0.928,0-1.607,0.727-1.607,1.707c0,1.004,0.596,1.721,1.668,1.721c0.309,0,0.596-0.047,0.826-0.146v-0.996H37.58v-1.064h2.254
		v2.895c-0.533,0.277-1.268,0.471-2.107,0.471C35.98,41.549,34.723,40.391,34.723,38.67z M50.669,62.594
		c-3.658,1.924-7.787,3.068-12.169,3.221V43.643h6.031l-6.596-13.178h4.805v-2H38.5V9.187c4.383,0.152,8.512,1.298,12.169,3.222
		v16.057H46.41v2h4.763l-6.597,13.178h6.093V62.594z M49.779,41.407v-5.465h2.176c0.85,0,1.861,0.301,1.861,1.404
		c0,0.602-0.363,1.004-0.896,1.182v0.016c0.625,0.107,1.119,0.555,1.119,1.273c0,1.188-1.041,1.59-2.084,1.59H49.779z
		 M52.669,61.434V43.643h6.094l-6.596-13.178h4.762v-2h-4.26V13.569c7.914,5.027,13.17,13.863,13.17,23.934
		C65.839,47.571,60.583,56.407,52.669,61.434z"/>
	<path fill="#A3CD39" d="M51.785,39.09H51.05v1.25h0.742c0.418,0,0.926-0.115,0.926-0.646C52.718,39.237,52.349,39.09,51.785,39.09z
		"/>
	<path fill="#A3CD39" d="M52.542,37.524c0-0.371-0.287-0.533-0.844-0.533H51.05v1.127h0.713
		C52.255,38.118,52.542,37.911,52.542,37.524z"/>
</g>
</svg>
