<?xml version="1.0" encoding="utf-8"?>
<!-- Generator: Adobe Illustrator 16.0.4, SVG Export Plug-In . SVG Version: 6.00 Build 0)  -->
<!DOCTYPE svg PUBLIC "-//W3C//DTD SVG 1.1//EN" "http://www.w3.org/Graphics/SVG/1.1/DTD/svg11.dtd">
<svg version="1.1" id="Layer_1" xmlns="http://www.w3.org/2000/svg" xmlns:xlink="http://www.w3.org/1999/xlink" x="0px" y="0px"
	 width="75px" height="75px" viewBox="0 0 75 75" enable-background="new 0 0 75 75" xml:space="preserve">
<g>
	<path fill="#FF48B0" d="M37.499,8.159c-16.729,0-30.338,13.61-30.338,30.34s13.609,30.34,30.338,30.34
		c16.729,0,30.34-13.61,30.34-30.34S54.229,8.159,37.499,8.159z M37.499,66.839c-15.65,0-28.338-12.688-28.338-28.34
		c0-15.651,12.688-28.34,28.338-28.34c15.652,0,28.34,12.688,28.34,28.34C65.839,54.151,53.151,66.839,37.499,66.839z"/>
	<path fill="#FF48B0" d="M23.929,24.864v7.094h7.094l-0.002-7.094H23.929z M25.929,29.958v-3.094h3.093l0.001,3.094H25.929z"/>
	<path fill="#FF48B0" d="M43.979,44.915v7.095l7.096-0.001l-0.002-7.094H43.979z M49.074,50.009l-3.095,0.001v-3.095h3.095V50.009z"
		/>
	<path fill="#FF48B0" d="M43.976,22.862h-2v2v7.076v2h2l7.076-0.001h2v-2v-7.076v-2h-2L43.976,22.862z M51.052,31.938l-7.076,0.001
		v-7.076l7.076-0.001V31.938z"/>
	<path fill="#FF48B0" d="M23.925,51.988h7.076v-7.076h-7.076V51.988z M25.925,46.912h3.076v3.076h-3.076V46.912z"/>
</g>
</svg>
