<?xml version="1.0" encoding="utf-8"?>
<!-- Generator: Adobe Illustrator 16.0.4, SVG Export Plug-In . SVG Version: 6.00 Build 0)  -->
<!DOCTYPE svg PUBLIC "-//W3C//DTD SVG 1.1//EN" "http://www.w3.org/Graphics/SVG/1.1/DTD/svg11.dtd">
<svg version="1.1" id="Layer_1" xmlns="http://www.w3.org/2000/svg" xmlns:xlink="http://www.w3.org/1999/xlink" x="0px" y="0px"
	 width="75px" height="75px" viewBox="0 0 75 75" enable-background="new 0 0 75 75" xml:space="preserve">
<g>
	<path fill="#A3CD39" d="M37.5,8.188c-16.73,0-30.34,13.61-30.34,30.34c0,16.729,13.61,30.34,30.34,30.34
		c16.729,0,30.34-13.611,30.34-30.34C67.84,21.798,54.229,8.188,37.5,8.188z M37.5,66.869c-15.65,0-28.34-12.689-28.34-28.34
		c0-15.652,12.69-28.34,28.34-28.34c15.652,0,28.34,12.688,28.34,28.34C65.84,54.179,53.153,66.869,37.5,66.869z"/>
	<path fill="#A3CD39" d="M38.262,37.833c-2.055-0.676-4.004-1.273-4.004-3.613c0-2.367,2.105-3.459,3.926-3.459
		c1.742,0,3.016,0.729,3.797,1.846l1.482-1.195c-0.885-1.197-2.73-2.236-5.201-2.236c-2.703,0-5.875,1.508-5.875,5.07
		c0,3.328,2.496,4.395,4.939,5.148c2.34,0.729,4.498,1.377,4.498,3.951c0,2.367-2.184,3.562-4.082,3.562
		c-1.924,0-3.406-1.014-4.213-2.314l-1.611,1.197c1.326,1.82,3.562,2.729,5.799,2.729c2.912,0,6.006-1.611,6.006-5.303
		C43.723,39.523,40.862,38.691,38.262,37.833z"/>
</g>
</svg>
