<?xml version="1.0" encoding="utf-8"?>
<!-- Generator: Adobe Illustrator 16.0.4, SVG Export Plug-In . SVG Version: 6.00 Build 0)  -->
<!DOCTYPE svg PUBLIC "-//W3C//DTD SVG 1.1//EN" "http://www.w3.org/Graphics/SVG/1.1/DTD/svg11.dtd">
<svg version="1.1" id="Layer_1" xmlns="http://www.w3.org/2000/svg" xmlns:xlink="http://www.w3.org/1999/xlink" x="0px" y="0px"
	 width="75px" height="75px" viewBox="0 0 75 75" enable-background="new 0 0 75 75" xml:space="preserve">
<g>
	<path fill="#FF48B0" d="M37.5,7.161C20.771,7.161,7.16,20.772,7.16,37.5S20.771,67.84,37.5,67.84c16.73,0,30.34-13.611,30.34-30.34
		S54.23,7.161,37.5,7.161z M37.5,65.84C21.849,65.84,9.16,53.153,9.16,37.5C9.16,21.85,21.849,9.161,37.5,9.161
		c15.652,0,28.34,12.689,28.34,28.339C65.839,53.153,53.152,65.84,37.5,65.84z"/>
	<path fill="#FF48B0" d="M51.197,22.368l-21.355,5.334l-2.324-6.543l-1.885,0.67l2.26,6.359l-5.033,1.256
		c-0.49,0.123-0.812,0.592-0.75,1.092c0.061,0.502,0.486,0.879,0.992,0.879h5.936l4.211,11.855c-1.932,0.918-3.48,2.457-4.416,4.414
		c-1.084,2.264-1.219,4.811-0.385,7.176c1.324,3.744,4.881,6.262,8.852,6.262c1.064,0,2.117-0.182,3.127-0.539
		c4.879-1.723,7.447-7.094,5.725-11.975c-1.322-3.746-4.879-6.262-8.848-6.262c-0.732,0-1.457,0.092-2.166,0.26L31.16,31.415h20.279
		c0.553,0,1-0.447,1-1v-7.076c0-0.309-0.143-0.6-0.385-0.789C51.81,22.36,51.494,22.292,51.197,22.368z M44.265,49.274
		c1.357,3.848-0.656,8.064-4.506,9.424c-0.812,0.287-1.645,0.424-2.461,0.424c-3.041,0-5.893-1.895-6.965-4.928
		c-1.359-3.848,0.662-8.066,4.506-9.424c0.814-0.289,1.645-0.424,2.463-0.424C40.345,44.346,43.193,46.241,44.265,49.274z
		 M50.439,29.415H31.234l19.205-4.797V29.415z"/>
</g>
</svg>
