<?xml version="1.0" encoding="utf-8"?>
<!-- Generator: Adobe Illustrator 16.0.4, SVG Export Plug-In . SVG Version: 6.00 Build 0)  -->
<!DOCTYPE svg PUBLIC "-//W3C//DTD SVG 1.1//EN" "http://www.w3.org/Graphics/SVG/1.1/DTD/svg11.dtd">
<svg version="1.1" id="Layer_1" xmlns="http://www.w3.org/2000/svg" xmlns:xlink="http://www.w3.org/1999/xlink" x="0px" y="0px"
	 width="75px" height="75px" viewBox="0 0 75 75" enable-background="new 0 0 75 75" xml:space="preserve">
<path fill="#FF7231" d="M37.5,7.16C20.77,7.16,7.16,20.77,7.16,37.5c0,16.729,13.61,30.34,30.34,30.34
	c16.728,0,30.339-13.611,30.339-30.34C67.839,20.77,54.228,7.16,37.5,7.16z M37.5,9.16c12.816,0,23.638,8.508,27.142,20.184H45.055
	v-6.076L25.199,36.5H9.185C9.712,21.311,22.182,9.16,37.5,9.16z M43.055,27.004v20.867L27.398,37.438L43.055,27.004z M37.5,65.84
	c-15.318,0-27.788-12.152-28.315-27.34h16.202l19.668,13.107v-6.076h19.623C61.214,57.27,50.361,65.84,37.5,65.84z M65.189,43.532
	H45.055V31.344H65.16c0.439,1.982,0.68,4.041,0.68,6.156C65.839,39.571,65.611,41.586,65.189,43.532z"/>
</svg>
