<?xml version="1.0" encoding="utf-8"?>
<!-- Generator: Adobe Illustrator 16.0.4, SVG Export Plug-In . SVG Version: 6.00 Build 0)  -->
<!DOCTYPE svg PUBLIC "-//W3C//DTD SVG 1.1//EN" "http://www.w3.org/Graphics/SVG/1.1/DTD/svg11.dtd">
<svg version="1.1" id="Layer_1" xmlns="http://www.w3.org/2000/svg" xmlns:xlink="http://www.w3.org/1999/xlink" x="0px" y="0px"
	 width="75px" height="75px" viewBox="0 0 75 75" enable-background="new 0 0 75 75" xml:space="preserve">
<g>
	<g>
		<path fill="#A3CD39" d="M37.499,9.642c15.65,0,28.34,12.687,28.34,28.339s-12.689,28.34-28.34,28.34
			c-15.652,0-28.338-12.688-28.338-28.34S21.846,9.642,37.499,9.642 M37.499,7.642C20.77,7.642,7.16,21.252,7.16,37.981
			c0,16.73,13.61,30.34,30.338,30.34c16.73,0,30.34-13.609,30.34-30.34C67.838,21.252,54.229,7.642,37.499,7.642L37.499,7.642z"/>
	</g>
	<g>
		<path fill="#A3CD39" d="M32.417,49.612h-9.086V26.35h9.086V49.612z M25.331,47.612h5.086V28.35h-5.086V47.612z"/>
	</g>
	<g>
		<path fill="#A3CD39" d="M46.59,58.577l-12.988-9.455V26.842l12.988-9.457V58.577z M35.602,48.104l8.988,6.543V21.315l-8.988,6.545
			V48.104z"/>
	</g>
</g>
</svg>
