<?xml version="1.0" encoding="utf-8"?>
<!-- Generator: Adobe Illustrator 16.0.4, SVG Export Plug-In . SVG Version: 6.00 Build 0)  -->
<!DOCTYPE svg PUBLIC "-//W3C//DTD SVG 1.1//EN" "http://www.w3.org/Graphics/SVG/1.1/DTD/svg11.dtd">
<svg version="1.1" id="Layer_1" xmlns="http://www.w3.org/2000/svg" xmlns:xlink="http://www.w3.org/1999/xlink" x="0px" y="0px"
	 width="75px" height="75px" viewBox="0 0 75 75" enable-background="new 0 0 75 75" xml:space="preserve">
<path fill="#FF48B0" d="M38.5,7.187V7.161h-2v0.025C20.233,7.717,7.16,21.107,7.16,37.501c0,16.729,13.61,30.338,30.34,30.338
	c16.729,0,30.34-13.609,30.34-30.338C67.84,21.107,54.768,7.717,38.5,7.187z M37.5,39.183c3.918,0,7.094,3.176,7.094,7.092
	c0,3.918-3.176,7.094-7.094,7.094c-3.916,0-7.092-3.176-7.092-7.094C30.409,42.359,33.584,39.183,37.5,39.183z M37.5,65.839
	c-15.652,0-28.34-12.688-28.34-28.338c0-15.316,12.151-27.788,27.34-28.315v28.055c-4.545,0.5-8.092,4.359-8.092,9.033
	c0,5.014,4.078,9.094,9.092,9.094s9.094-4.08,9.094-9.094c0-4.676-3.549-8.535-8.094-9.035V33.71h2.883v-2H38.5v-5.568h2.883v-2
	H38.5v-5.566h2.883v-2H38.5V9.187c15.188,0.527,27.34,12.999,27.34,28.315C65.84,53.152,53.153,65.839,37.5,65.839z"/>
</svg>
