<?xml version="1.0" encoding="utf-8"?>
<!-- Generator: Adobe Illustrator 16.0.4, SVG Export Plug-In . SVG Version: 6.00 Build 0)  -->
<!DOCTYPE svg PUBLIC "-//W3C//DTD SVG 1.1//EN" "http://www.w3.org/Graphics/SVG/1.1/DTD/svg11.dtd">
<svg version="1.1" id="Layer_1" xmlns="http://www.w3.org/2000/svg" xmlns:xlink="http://www.w3.org/1999/xlink" x="0px" y="0px"
	 width="75px" height="75px" viewBox="0 0 75 75" enable-background="new 0 0 75 75" xml:space="preserve">
<path fill="#FF48B0" d="M37.5,7.161c-16.73,0-30.34,13.61-30.34,30.34c0,16.729,13.61,30.338,30.34,30.338
	c16.729,0,30.34-13.609,30.34-30.338C67.839,20.771,54.228,7.161,37.5,7.161z M37.5,9.161c15.316,0,27.787,12.151,28.314,27.34
	H52.667v-14.17H22.33v14.17H9.185C9.712,21.312,22.181,9.161,37.5,9.161z M50.667,37.224c-0.697,0.891-2.502,2.645-5.898,2.645
	c-2.26,0-4.377-1.703-6.615-3.506c-2.359-1.898-4.797-3.861-7.641-3.861c-2.879,0-4.893,1.084-6.184,2.15v-10.32h26.338V37.224z
	 M24.33,37.56c0.393-0.588,2.27-3.059,6.184-3.059c2.139,0,4.201,1.66,6.387,3.418c2.41,1.941,4.904,3.949,7.869,3.949
	c2.707,0,4.619-0.908,5.898-1.881v10.682H24.33V37.56z M37.5,65.839c-15.318,0-27.788-12.152-28.315-27.338H22.33v14.168h30.338
	V38.501h13.146C65.287,53.687,52.816,65.839,37.5,65.839z"/>
</svg>
