<?xml version="1.0" encoding="utf-8"?>
<!-- Generator: Adobe Illustrator 16.0.4, SVG Export Plug-In . SVG Version: 6.00 Build 0)  -->
<!DOCTYPE svg PUBLIC "-//W3C//DTD SVG 1.1//EN" "http://www.w3.org/Graphics/SVG/1.1/DTD/svg11.dtd">
<svg version="1.1" id="Layer_1" xmlns="http://www.w3.org/2000/svg" xmlns:xlink="http://www.w3.org/1999/xlink" x="0px" y="0px"
	 width="75px" height="75px" viewBox="0 0 75 75" enable-background="new 0 0 75 75" xml:space="preserve">
<path fill="#FF7231" d="M37.5,8.405c-16.73,0-30.34,13.61-30.34,30.34c0,16.729,13.61,30.34,30.34,30.34
	c16.729,0,30.34-13.611,30.34-30.34C67.839,22.015,54.228,8.405,37.5,8.405z M37.5,10.405c15.316,0,27.787,12.151,28.314,27.34
	H9.185C9.712,22.556,22.181,10.405,37.5,10.405z M37.5,67.085c-15.318,0-27.788-12.152-28.315-27.34h56.629
	C65.287,54.933,52.816,67.085,37.5,67.085z"/>
</svg>
